<svg width="1338" height="695" viewBox="0 0 1338 695" fill="none" xmlns="http://www.w3.org/2000/svg">
<path d="M69.5 24C69.5 10.7452 80.2452 0 93.5 0H1244.5C1257.75 0 1268.5 10.7452 1268.5 24V26H69.5V24Z" fill="#F5F5F5"/>
<rect y="26" width="1338" height="669" rx="24" fill="white"/>
<path d="M348.821 258.934C348.315 258.934 347.884 258.782 347.529 258.478C347.225 258.123 347.073 257.692 347.073 257.186V212.498H332.481C331.975 212.498 331.544 212.346 331.189 212.042C330.885 211.687 330.733 211.256 330.733 210.75V207.558C330.733 207 330.885 206.57 331.189 206.266C331.544 205.911 331.975 205.734 332.481 205.734H369.113C369.671 205.734 370.101 205.911 370.405 206.266C370.76 206.57 370.937 207 370.937 207.558V210.75C370.937 211.256 370.76 211.687 370.405 212.042C370.101 212.346 369.671 212.498 369.113 212.498H354.597V257.186C354.597 257.692 354.42 258.123 354.065 258.478C353.761 258.782 353.331 258.934 352.773 258.934H348.821ZM373.914 258.934C373.408 258.934 372.977 258.782 372.622 258.478C372.318 258.123 372.166 257.692 372.166 257.186V221.162C372.166 220.655 372.318 220.25 372.622 219.946C372.977 219.591 373.408 219.414 373.914 219.414H377.562C378.069 219.414 378.474 219.591 378.778 219.946C379.082 220.25 379.234 220.655 379.234 221.162V257.186C379.234 257.692 379.082 258.123 378.778 258.478C378.474 258.782 378.069 258.934 377.562 258.934H373.914ZM373.306 212.042C372.8 212.042 372.369 211.89 372.014 211.586C371.71 211.231 371.558 210.8 371.558 210.294V206.19C371.558 205.683 371.71 205.278 372.014 204.974C372.369 204.619 372.8 204.442 373.306 204.442H378.094C378.601 204.442 379.006 204.619 379.31 204.974C379.665 205.278 379.842 205.683 379.842 206.19V210.294C379.842 210.8 379.665 211.231 379.31 211.586C379.006 211.89 378.601 212.042 378.094 212.042H373.306ZM398.933 259.694C396.146 259.694 393.739 259.212 391.713 258.25C389.686 257.236 388.014 255.894 386.697 254.222C385.43 252.499 384.467 250.548 383.809 248.37C383.201 246.191 382.846 243.886 382.745 241.454C382.694 240.643 382.669 239.883 382.669 239.174C382.669 238.464 382.694 237.704 382.745 236.894C382.846 234.512 383.201 232.232 383.809 230.054C384.467 227.875 385.43 225.924 386.697 224.202C388.014 222.479 389.686 221.136 391.713 220.174C393.739 219.16 396.146 218.654 398.933 218.654C401.922 218.654 404.405 219.186 406.381 220.25C408.357 221.314 409.978 222.631 411.245 224.202V206.722C411.245 206.215 411.397 205.81 411.701 205.506C412.055 205.151 412.486 204.974 412.993 204.974H416.641C417.147 204.974 417.553 205.151 417.857 205.506C418.211 205.81 418.389 206.215 418.389 206.722V257.186C418.389 257.692 418.211 258.123 417.857 258.478C417.553 258.782 417.147 258.934 416.641 258.934H413.221C412.663 258.934 412.233 258.782 411.929 258.478C411.625 258.123 411.473 257.692 411.473 257.186V253.994C410.206 255.615 408.559 256.983 406.533 258.098C404.506 259.162 401.973 259.694 398.933 259.694ZM400.529 253.538C403.062 253.538 405.089 252.955 406.609 251.79C408.129 250.624 409.269 249.155 410.029 247.382C410.789 245.558 411.194 243.708 411.245 241.834C411.295 241.023 411.321 240.06 411.321 238.946C411.321 237.78 411.295 236.792 411.245 235.982C411.194 234.208 410.763 232.46 409.953 230.738C409.193 229.015 408.027 227.596 406.457 226.482C404.937 225.367 402.961 224.81 400.529 224.81C397.945 224.81 395.893 225.392 394.373 226.558C392.853 227.672 391.763 229.167 391.105 231.042C390.446 232.866 390.066 234.842 389.965 236.97C389.914 238.439 389.914 239.908 389.965 241.378C390.066 243.506 390.446 245.507 391.105 247.382C391.763 249.206 392.853 250.7 394.373 251.866C395.893 252.98 397.945 253.538 400.529 253.538ZM434.632 259.694C432.098 259.694 429.793 259.187 427.716 258.174C425.638 257.16 423.966 255.792 422.7 254.07C421.433 252.347 420.8 250.396 420.8 248.218C420.8 244.722 422.218 241.935 425.056 239.858C427.893 237.78 431.592 236.412 436.152 235.754L447.476 234.158V231.954C447.476 229.522 446.766 227.622 445.348 226.254C443.98 224.886 441.725 224.202 438.584 224.202C436.304 224.202 434.454 224.658 433.036 225.57C431.668 226.482 430.705 227.647 430.148 229.066C429.844 229.826 429.312 230.206 428.552 230.206H425.132C424.574 230.206 424.144 230.054 423.84 229.75C423.586 229.395 423.46 228.99 423.46 228.534C423.46 227.774 423.738 226.836 424.296 225.722C424.904 224.607 425.816 223.518 427.032 222.454C428.248 221.39 429.793 220.503 431.668 219.794C433.593 219.034 435.924 218.654 438.66 218.654C441.7 218.654 444.258 219.059 446.336 219.87C448.413 220.63 450.034 221.668 451.2 222.986C452.416 224.303 453.277 225.798 453.784 227.47C454.341 229.142 454.62 230.839 454.62 232.562V257.186C454.62 257.692 454.442 258.123 454.088 258.478C453.784 258.782 453.378 258.934 452.872 258.934H449.376C448.818 258.934 448.388 258.782 448.084 258.478C447.78 258.123 447.628 257.692 447.628 257.186V253.918C446.969 254.83 446.082 255.742 444.968 256.654C443.853 257.515 442.46 258.25 440.788 258.858C439.116 259.415 437.064 259.694 434.632 259.694ZM436.228 253.994C438.305 253.994 440.205 253.563 441.928 252.702C443.65 251.79 444.993 250.396 445.956 248.522C446.969 246.647 447.476 244.291 447.476 241.454V239.326L438.66 240.618C435.062 241.124 432.352 241.986 430.528 243.202C428.704 244.367 427.792 245.862 427.792 247.686C427.792 249.104 428.197 250.295 429.008 251.258C429.869 252.17 430.933 252.854 432.2 253.31C433.517 253.766 434.86 253.994 436.228 253.994ZM461.289 258.934C460.783 258.934 460.352 258.782 459.997 258.478C459.693 258.123 459.541 257.692 459.541 257.186V206.722C459.541 206.215 459.693 205.81 459.997 205.506C460.352 205.151 460.783 204.974 461.289 204.974H464.861C465.368 204.974 465.773 205.151 466.077 205.506C466.432 205.81 466.609 206.215 466.609 206.722V233.17L481.581 220.706C482.189 220.199 482.645 219.87 482.949 219.718C483.304 219.515 483.861 219.414 484.621 219.414H488.649C489.105 219.414 489.485 219.566 489.789 219.87C490.093 220.174 490.245 220.554 490.245 221.01C490.245 221.212 490.169 221.44 490.017 221.694C489.916 221.947 489.688 222.2 489.333 222.454L471.777 237.046L491.233 255.97C491.841 256.476 492.145 256.932 492.145 257.338C492.145 257.794 491.993 258.174 491.689 258.478C491.385 258.782 491.005 258.934 490.549 258.934H486.597C485.837 258.934 485.28 258.858 484.925 258.706C484.571 258.503 484.115 258.148 483.557 257.642L466.609 241.454V257.186C466.609 257.692 466.432 258.123 466.077 258.478C465.773 258.782 465.368 258.934 464.861 258.934H461.289ZM515.4 259.694C512.866 259.694 510.561 259.187 508.484 258.174C506.406 257.16 504.734 255.792 503.468 254.07C502.201 252.347 501.568 250.396 501.568 248.218C501.568 244.722 502.986 241.935 505.824 239.858C508.661 237.78 512.36 236.412 516.92 235.754L528.244 234.158V231.954C528.244 229.522 527.534 227.622 526.116 226.254C524.748 224.886 522.493 224.202 519.352 224.202C517.072 224.202 515.222 224.658 513.804 225.57C512.436 226.482 511.473 227.647 510.916 229.066C510.612 229.826 510.08 230.206 509.32 230.206H505.9C505.342 230.206 504.912 230.054 504.608 229.75C504.354 229.395 504.228 228.99 504.228 228.534C504.228 227.774 504.506 226.836 505.064 225.722C505.672 224.607 506.584 223.518 507.8 222.454C509.016 221.39 510.561 220.503 512.436 219.794C514.361 219.034 516.692 218.654 519.428 218.654C522.468 218.654 525.026 219.059 527.104 219.87C529.181 220.63 530.802 221.668 531.968 222.986C533.184 224.303 534.045 225.798 534.552 227.47C535.109 229.142 535.388 230.839 535.388 232.562V257.186C535.388 257.692 535.21 258.123 534.856 258.478C534.552 258.782 534.146 258.934 533.64 258.934H530.144C529.586 258.934 529.156 258.782 528.852 258.478C528.548 258.123 528.396 257.692 528.396 257.186V253.918C527.737 254.83 526.85 255.742 525.736 256.654C524.621 257.515 523.228 258.25 521.556 258.858C519.884 259.415 517.832 259.694 515.4 259.694ZM516.996 253.994C519.073 253.994 520.973 253.563 522.696 252.702C524.418 251.79 525.761 250.396 526.724 248.522C527.737 246.647 528.244 244.291 528.244 241.454V239.326L519.428 240.618C515.83 241.124 513.12 241.986 511.296 243.202C509.472 244.367 508.56 245.862 508.56 247.686C508.56 249.104 508.965 250.295 509.776 251.258C510.637 252.17 511.701 252.854 512.968 253.31C514.285 253.766 515.628 253.994 516.996 253.994ZM554.673 259.694C551.886 259.694 549.48 259.212 547.453 258.25C545.426 257.236 543.754 255.894 542.437 254.222C541.17 252.499 540.208 250.548 539.549 248.37C538.941 246.191 538.586 243.886 538.485 241.454C538.434 240.643 538.409 239.883 538.409 239.174C538.409 238.464 538.434 237.704 538.485 236.894C538.586 234.512 538.941 232.232 539.549 230.054C540.208 227.875 541.17 225.924 542.437 224.202C543.754 222.479 545.426 221.136 547.453 220.174C549.48 219.16 551.886 218.654 554.673 218.654C557.662 218.654 560.145 219.186 562.121 220.25C564.097 221.314 565.718 222.631 566.985 224.202V206.722C566.985 206.215 567.137 205.81 567.441 205.506C567.796 205.151 568.226 204.974 568.733 204.974H572.381C572.888 204.974 573.293 205.151 573.597 205.506C573.952 205.81 574.129 206.215 574.129 206.722V257.186C574.129 257.692 573.952 258.123 573.597 258.478C573.293 258.782 572.888 258.934 572.381 258.934H568.961C568.404 258.934 567.973 258.782 567.669 258.478C567.365 258.123 567.213 257.692 567.213 257.186V253.994C565.946 255.615 564.3 256.983 562.273 258.098C560.246 259.162 557.713 259.694 554.673 259.694ZM556.269 253.538C558.802 253.538 560.829 252.955 562.349 251.79C563.869 250.624 565.009 249.155 565.769 247.382C566.529 245.558 566.934 243.708 566.985 241.834C567.036 241.023 567.061 240.06 567.061 238.946C567.061 237.78 567.036 236.792 566.985 235.982C566.934 234.208 566.504 232.46 565.693 230.738C564.933 229.015 563.768 227.596 562.197 226.482C560.677 225.367 558.701 224.81 556.269 224.81C553.685 224.81 551.633 225.392 550.113 226.558C548.593 227.672 547.504 229.167 546.845 231.042C546.186 232.866 545.806 234.842 545.705 236.97C545.654 238.439 545.654 239.908 545.705 241.378C545.806 243.506 546.186 245.507 546.845 247.382C547.504 249.206 548.593 250.7 550.113 251.866C551.633 252.98 553.685 253.538 556.269 253.538ZM590.372 259.694C587.839 259.694 585.534 259.187 583.456 258.174C581.379 257.16 579.707 255.792 578.44 254.07C577.174 252.347 576.54 250.396 576.54 248.218C576.54 244.722 577.959 241.935 580.796 239.858C583.634 237.78 587.332 236.412 591.892 235.754L603.216 234.158V231.954C603.216 229.522 602.507 227.622 601.088 226.254C599.72 224.886 597.466 224.202 594.324 224.202C592.044 224.202 590.195 224.658 588.776 225.57C587.408 226.482 586.446 227.647 585.888 229.066C585.584 229.826 585.052 230.206 584.292 230.206H580.872C580.315 230.206 579.884 230.054 579.58 229.75C579.327 229.395 579.2 228.99 579.2 228.534C579.2 227.774 579.479 226.836 580.036 225.722C580.644 224.607 581.556 223.518 582.772 222.454C583.988 221.39 585.534 220.503 587.408 219.794C589.334 219.034 591.664 218.654 594.4 218.654C597.44 218.654 599.999 219.059 602.076 219.87C604.154 220.63 605.775 221.668 606.94 222.986C608.156 224.303 609.018 225.798 609.524 227.47C610.082 229.142 610.36 230.839 610.36 232.562V257.186C610.36 257.692 610.183 258.123 609.828 258.478C609.524 258.782 609.119 258.934 608.612 258.934H605.116C604.559 258.934 604.128 258.782 603.824 258.478C603.52 258.123 603.368 257.692 603.368 257.186V253.918C602.71 254.83 601.823 255.742 600.708 256.654C599.594 257.515 598.2 258.25 596.528 258.858C594.856 259.415 592.804 259.694 590.372 259.694ZM591.968 253.994C594.046 253.994 595.946 253.563 597.668 252.702C599.391 251.79 600.734 250.396 601.696 248.522C602.71 246.647 603.216 244.291 603.216 241.454V239.326L594.4 240.618C590.803 241.124 588.092 241.986 586.268 243.202C584.444 244.367 583.532 245.862 583.532 247.686C583.532 249.104 583.938 250.295 584.748 251.258C585.61 252.17 586.674 252.854 587.94 253.31C589.258 253.766 590.6 253.994 591.968 253.994ZM642.195 259.694C639.408 259.694 637.002 259.212 634.975 258.25C632.948 257.236 631.276 255.894 629.959 254.222C628.692 252.499 627.73 250.548 627.071 248.37C626.463 246.191 626.108 243.886 626.007 241.454C625.956 240.643 625.931 239.883 625.931 239.174C625.931 238.464 625.956 237.704 626.007 236.894C626.108 234.512 626.463 232.232 627.071 230.054C627.73 227.875 628.692 225.924 629.959 224.202C631.276 222.479 632.948 221.136 634.975 220.174C637.002 219.16 639.408 218.654 642.195 218.654C645.184 218.654 647.667 219.186 649.643 220.25C651.619 221.314 653.24 222.631 654.507 224.202V206.722C654.507 206.215 654.659 205.81 654.963 205.506C655.318 205.151 655.748 204.974 656.255 204.974H659.903C660.41 204.974 660.815 205.151 661.119 205.506C661.474 205.81 661.651 206.215 661.651 206.722V257.186C661.651 257.692 661.474 258.123 661.119 258.478C660.815 258.782 660.41 258.934 659.903 258.934H656.483C655.926 258.934 655.495 258.782 655.191 258.478C654.887 258.123 654.735 257.692 654.735 257.186V253.994C653.468 255.615 651.822 256.983 649.795 258.098C647.768 259.162 645.235 259.694 642.195 259.694ZM643.791 253.538C646.324 253.538 648.351 252.955 649.871 251.79C651.391 250.624 652.531 249.155 653.291 247.382C654.051 245.558 654.456 243.708 654.507 241.834C654.558 241.023 654.583 240.06 654.583 238.946C654.583 237.78 654.558 236.792 654.507 235.982C654.456 234.208 654.026 232.46 653.215 230.738C652.455 229.015 651.29 227.596 649.719 226.482C648.199 225.367 646.223 224.81 643.791 224.81C641.207 224.81 639.155 225.392 637.635 226.558C636.115 227.672 635.026 229.167 634.367 231.042C633.708 232.866 633.328 234.842 633.227 236.97C633.176 238.439 633.176 239.908 633.227 241.378C633.328 243.506 633.708 245.507 634.367 247.382C635.026 249.206 636.115 250.7 637.635 251.866C639.155 252.98 641.207 253.538 643.791 253.538ZM677.894 259.694C675.361 259.694 673.055 259.187 670.978 258.174C668.901 257.16 667.229 255.792 665.962 254.07C664.695 252.347 664.062 250.396 664.062 248.218C664.062 244.722 665.481 241.935 668.318 239.858C671.155 237.78 674.854 236.412 679.414 235.754L690.738 234.158V231.954C690.738 229.522 690.029 227.622 688.61 226.254C687.242 224.886 684.987 224.202 681.846 224.202C679.566 224.202 677.717 224.658 676.298 225.57C674.93 226.482 673.967 227.647 673.41 229.066C673.106 229.826 672.574 230.206 671.814 230.206H668.394C667.837 230.206 667.406 230.054 667.102 229.75C666.849 229.395 666.722 228.99 666.722 228.534C666.722 227.774 667.001 226.836 667.558 225.722C668.166 224.607 669.078 223.518 670.294 222.454C671.51 221.39 673.055 220.503 674.93 219.794C676.855 219.034 679.186 218.654 681.922 218.654C684.962 218.654 687.521 219.059 689.598 219.87C691.675 220.63 693.297 221.668 694.462 222.986C695.678 224.303 696.539 225.798 697.046 227.47C697.603 229.142 697.882 230.839 697.882 232.562V257.186C697.882 257.692 697.705 258.123 697.35 258.478C697.046 258.782 696.641 258.934 696.134 258.934H692.638C692.081 258.934 691.65 258.782 691.346 258.478C691.042 258.123 690.89 257.692 690.89 257.186V253.918C690.231 254.83 689.345 255.742 688.23 256.654C687.115 257.515 685.722 258.25 684.05 258.858C682.378 259.415 680.326 259.694 677.894 259.694ZM679.49 253.994C681.567 253.994 683.467 253.563 685.19 252.702C686.913 251.79 688.255 250.396 689.218 248.522C690.231 246.647 690.738 244.291 690.738 241.454V239.326L681.922 240.618C678.325 241.124 675.614 241.986 673.79 243.202C671.966 244.367 671.054 245.862 671.054 247.686C671.054 249.104 671.459 250.295 672.27 251.258C673.131 252.17 674.195 252.854 675.462 253.31C676.779 253.766 678.122 253.994 679.49 253.994ZM717.785 258.934C714.947 258.934 712.642 258.402 710.869 257.338C709.095 256.223 707.803 254.678 706.993 252.702C706.182 250.675 705.777 248.294 705.777 245.558V225.494H699.849C699.342 225.494 698.911 225.342 698.557 225.038C698.253 224.683 698.101 224.252 698.101 223.746V221.162C698.101 220.655 698.253 220.25 698.557 219.946C698.911 219.591 699.342 219.414 699.849 219.414H705.777V206.722C705.777 206.215 705.929 205.81 706.233 205.506C706.587 205.151 707.018 204.974 707.525 204.974H711.097C711.603 204.974 712.009 205.151 712.313 205.506C712.667 205.81 712.845 206.215 712.845 206.722V219.414H722.269C722.775 219.414 723.181 219.591 723.485 219.946C723.839 220.25 724.017 220.655 724.017 221.162V223.746C724.017 224.252 723.839 224.683 723.485 225.038C723.181 225.342 722.775 225.494 722.269 225.494H712.845V245.026C712.845 247.407 713.25 249.282 714.061 250.65C714.871 252.018 716.315 252.702 718.393 252.702H723.029C723.535 252.702 723.941 252.879 724.245 253.234C724.599 253.538 724.777 253.943 724.777 254.45V257.186C724.777 257.692 724.599 258.123 724.245 258.478C723.941 258.782 723.535 258.934 723.029 258.934H717.785ZM736.984 259.694C734.451 259.694 732.145 259.187 730.068 258.174C727.991 257.16 726.319 255.792 725.052 254.07C723.785 252.347 723.152 250.396 723.152 248.218C723.152 244.722 724.571 241.935 727.408 239.858C730.245 237.78 733.944 236.412 738.504 235.754L749.828 234.158V231.954C749.828 229.522 749.119 227.622 747.7 226.254C746.332 224.886 744.077 224.202 740.936 224.202C738.656 224.202 736.807 224.658 735.388 225.57C734.02 226.482 733.057 227.647 732.5 229.066C732.196 229.826 731.664 230.206 730.904 230.206H727.484C726.927 230.206 726.496 230.054 726.192 229.75C725.939 229.395 725.812 228.99 725.812 228.534C725.812 227.774 726.091 226.836 726.648 225.722C727.256 224.607 728.168 223.518 729.384 222.454C730.6 221.39 732.145 220.503 734.02 219.794C735.945 219.034 738.276 218.654 741.012 218.654C744.052 218.654 746.611 219.059 748.688 219.87C750.765 220.63 752.387 221.668 753.552 222.986C754.768 224.303 755.629 225.798 756.136 227.47C756.693 229.142 756.972 230.839 756.972 232.562V257.186C756.972 257.692 756.795 258.123 756.44 258.478C756.136 258.782 755.731 258.934 755.224 258.934H751.728C751.171 258.934 750.74 258.782 750.436 258.478C750.132 258.123 749.98 257.692 749.98 257.186V253.918C749.321 254.83 748.435 255.742 747.32 256.654C746.205 257.515 744.812 258.25 743.14 258.858C741.468 259.415 739.416 259.694 736.984 259.694ZM738.58 253.994C740.657 253.994 742.557 253.563 744.28 252.702C746.003 251.79 747.345 250.396 748.308 248.522C749.321 246.647 749.828 244.291 749.828 241.454V239.326L741.012 240.618C737.415 241.124 734.704 241.986 732.88 243.202C731.056 244.367 730.144 245.862 730.144 247.686C730.144 249.104 730.549 250.295 731.36 251.258C732.221 252.17 733.285 252.854 734.552 253.31C735.869 253.766 737.212 253.994 738.58 253.994ZM790.555 275.654C787.109 275.654 784.272 275.198 782.043 274.286C779.864 273.374 778.141 272.259 776.875 270.942C775.659 269.675 774.772 268.383 774.215 267.066C773.708 265.799 773.429 264.786 773.379 264.026C773.328 263.519 773.48 263.088 773.835 262.734C774.24 262.379 774.671 262.202 775.127 262.202H778.775C779.231 262.202 779.611 262.303 779.915 262.506C780.219 262.708 780.472 263.139 780.675 263.798C780.979 264.558 781.435 265.394 782.043 266.306C782.651 267.268 783.588 268.079 784.855 268.738C786.121 269.447 787.895 269.802 790.175 269.802C792.556 269.802 794.557 269.472 796.179 268.814C797.8 268.206 799.016 267.091 799.827 265.47C800.688 263.899 801.119 261.72 801.119 258.934V253.766C799.903 255.336 798.307 256.654 796.331 257.718C794.355 258.731 791.872 259.238 788.883 259.238C786.045 259.238 783.613 258.756 781.587 257.794C779.56 256.78 777.888 255.438 776.571 253.766C775.304 252.043 774.341 250.092 773.683 247.914C773.075 245.735 772.72 243.455 772.619 241.074C772.568 239.655 772.568 238.262 772.619 236.894C772.72 234.512 773.075 232.232 773.683 230.054C774.341 227.875 775.304 225.924 776.571 224.202C777.888 222.479 779.56 221.136 781.587 220.174C783.613 219.16 786.045 218.654 788.883 218.654C791.923 218.654 794.431 219.236 796.407 220.402C798.433 221.516 800.08 222.884 801.347 224.506V221.238C801.347 220.731 801.499 220.3 801.803 219.946C802.157 219.591 802.588 219.414 803.095 219.414H806.591C807.097 219.414 807.528 219.591 807.883 219.946C808.237 220.3 808.415 220.731 808.415 221.238V258.098C808.415 261.492 807.832 264.507 806.667 267.142C805.552 269.776 803.677 271.854 801.043 273.374C798.459 274.894 794.963 275.654 790.555 275.654ZM790.403 253.158C792.936 253.158 794.963 252.575 796.483 251.41C798.053 250.244 799.193 248.775 799.903 247.002C800.663 245.228 801.068 243.43 801.119 241.606C801.169 240.896 801.195 240.035 801.195 239.022C801.195 237.958 801.169 237.071 801.119 236.362C801.068 234.538 800.663 232.739 799.903 230.966C799.193 229.192 798.053 227.723 796.483 226.558C794.963 225.392 792.936 224.81 790.403 224.81C787.869 224.81 785.843 225.392 784.323 226.558C782.803 227.672 781.713 229.167 781.055 231.042C780.396 232.866 780.016 234.842 779.915 236.97C779.864 238.287 779.864 239.63 779.915 240.998C780.016 243.126 780.396 245.127 781.055 247.002C781.713 248.826 782.803 250.32 784.323 251.486C785.843 252.6 787.869 253.158 790.403 253.158ZM824.654 259.694C822.121 259.694 819.816 259.187 817.738 258.174C815.661 257.16 813.989 255.792 812.722 254.07C811.456 252.347 810.822 250.396 810.822 248.218C810.822 244.722 812.241 241.935 815.078 239.858C817.916 237.78 821.614 236.412 826.174 235.754L837.498 234.158V231.954C837.498 229.522 836.789 227.622 835.37 226.254C834.002 224.886 831.748 224.202 828.606 224.202C826.326 224.202 824.477 224.658 823.058 225.57C821.69 226.482 820.728 227.647 820.17 229.066C819.866 229.826 819.334 230.206 818.574 230.206H815.154C814.597 230.206 814.166 230.054 813.862 229.75C813.609 229.395 813.482 228.99 813.482 228.534C813.482 227.774 813.761 226.836 814.318 225.722C814.926 224.607 815.838 223.518 817.054 222.454C818.27 221.39 819.816 220.503 821.69 219.794C823.616 219.034 825.946 218.654 828.682 218.654C831.722 218.654 834.281 219.059 836.358 219.87C838.436 220.63 840.057 221.668 841.222 222.986C842.438 224.303 843.3 225.798 843.806 227.47C844.364 229.142 844.642 230.839 844.642 232.562V257.186C844.642 257.692 844.465 258.123 844.11 258.478C843.806 258.782 843.401 258.934 842.894 258.934H839.398C838.841 258.934 838.41 258.782 838.106 258.478C837.802 258.123 837.65 257.692 837.65 257.186V253.918C836.992 254.83 836.105 255.742 834.99 256.654C833.876 257.515 832.482 258.25 830.81 258.858C829.138 259.415 827.086 259.694 824.654 259.694ZM826.25 253.994C828.328 253.994 830.228 253.563 831.95 252.702C833.673 251.79 835.016 250.396 835.978 248.522C836.992 246.647 837.498 244.291 837.498 241.454V239.326L828.682 240.618C825.085 241.124 822.374 241.986 820.55 243.202C818.726 244.367 817.814 245.862 817.814 247.686C817.814 249.104 818.22 250.295 819.03 251.258C819.892 252.17 820.956 252.854 822.222 253.31C823.54 253.766 824.882 253.994 826.25 253.994ZM851.236 258.934C850.729 258.934 850.298 258.782 849.944 258.478C849.64 258.123 849.488 257.692 849.488 257.186V221.162C849.488 220.655 849.64 220.25 849.944 219.946C850.298 219.591 850.729 219.414 851.236 219.414H854.656C855.162 219.414 855.568 219.591 855.872 219.946C856.226 220.25 856.404 220.655 856.404 221.162V223.822C857.569 222.251 859.038 221.01 860.812 220.098C862.585 219.135 864.713 218.654 867.196 218.654C872.921 218.603 876.974 220.934 879.356 225.646C880.521 223.518 882.218 221.82 884.448 220.554C886.677 219.287 889.21 218.654 892.048 218.654C894.682 218.654 897.064 219.262 899.192 220.478C901.37 221.694 903.068 223.543 904.284 226.026C905.551 228.458 906.184 231.523 906.184 235.222V257.186C906.184 257.692 906.007 258.123 905.652 258.478C905.348 258.782 904.943 258.934 904.436 258.934H900.864C900.357 258.934 899.926 258.782 899.572 258.478C899.268 258.123 899.116 257.692 899.116 257.186V235.906C899.116 233.068 898.711 230.839 897.9 229.218C897.089 227.596 896 226.456 894.632 225.798C893.264 225.139 891.769 224.81 890.148 224.81C888.83 224.81 887.488 225.139 886.12 225.798C884.752 226.456 883.612 227.596 882.7 229.218C881.838 230.839 881.408 233.068 881.408 235.906V257.186C881.408 257.692 881.23 258.123 880.876 258.478C880.572 258.782 880.166 258.934 879.66 258.934H876.088C875.581 258.934 875.15 258.782 874.796 258.478C874.492 258.123 874.34 257.692 874.34 257.186V235.906C874.34 233.068 873.909 230.839 873.048 229.218C872.186 227.596 871.072 226.456 869.704 225.798C868.336 225.139 866.892 224.81 865.372 224.81C864.054 224.81 862.712 225.139 861.344 225.798C859.976 226.456 858.836 227.596 857.924 229.218C857.062 230.839 856.632 233.043 856.632 235.83V257.186C856.632 257.692 856.454 258.123 856.1 258.478C855.796 258.782 855.39 258.934 854.884 258.934H851.236ZM930.479 259.694C927.439 259.694 924.906 259.162 922.879 258.098C920.852 256.983 919.231 255.615 918.015 253.994V257.186C918.015 257.692 917.838 258.123 917.483 258.478C917.179 258.782 916.774 258.934 916.267 258.934H912.771C912.264 258.934 911.834 258.782 911.479 258.478C911.175 258.123 911.023 257.692 911.023 257.186V206.722C911.023 206.215 911.175 205.81 911.479 205.506C911.834 205.151 912.264 204.974 912.771 204.974H916.419C916.976 204.974 917.407 205.151 917.711 205.506C918.015 205.81 918.167 206.215 918.167 206.722V224.202C919.434 222.631 921.055 221.314 923.031 220.25C925.058 219.186 927.54 218.654 930.479 218.654C933.316 218.654 935.723 219.16 937.699 220.174C939.726 221.136 941.372 222.479 942.639 224.202C943.956 225.924 944.944 227.875 945.603 230.054C946.262 232.232 946.616 234.512 946.667 236.894C946.718 237.704 946.743 238.464 946.743 239.174C946.743 239.883 946.718 240.643 946.667 241.454C946.616 243.886 946.262 246.191 945.603 248.37C944.944 250.548 943.956 252.499 942.639 254.222C941.372 255.894 939.726 257.236 937.699 258.25C935.723 259.212 933.316 259.694 930.479 259.694ZM928.883 253.538C931.518 253.538 933.57 252.98 935.039 251.866C936.559 250.7 937.648 249.206 938.307 247.382C938.966 245.507 939.346 243.506 939.447 241.378C939.498 239.908 939.498 238.439 939.447 236.97C939.346 234.842 938.966 232.866 938.307 231.042C937.648 229.167 936.559 227.672 935.039 226.558C933.57 225.392 931.518 224.81 928.883 224.81C926.502 224.81 924.526 225.367 922.955 226.482C921.384 227.596 920.194 229.015 919.383 230.738C918.623 232.46 918.218 234.208 918.167 235.982C918.116 236.792 918.091 237.78 918.091 238.946C918.091 240.06 918.116 241.023 918.167 241.834C918.268 243.708 918.674 245.558 919.383 247.382C920.143 249.155 921.283 250.624 922.803 251.79C924.374 252.955 926.4 253.538 928.883 253.538ZM961.086 259.694C958.553 259.694 956.247 259.187 954.17 258.174C952.093 257.16 950.421 255.792 949.154 254.07C947.887 252.347 947.254 250.396 947.254 248.218C947.254 244.722 948.673 241.935 951.51 239.858C954.347 237.78 958.046 236.412 962.606 235.754L973.93 234.158V231.954C973.93 229.522 973.221 227.622 971.802 226.254C970.434 224.886 968.179 224.202 965.038 224.202C962.758 224.202 960.909 224.658 959.49 225.57C958.122 226.482 957.159 227.647 956.602 229.066C956.298 229.826 955.766 230.206 955.006 230.206H951.586C951.029 230.206 950.598 230.054 950.294 229.75C950.041 229.395 949.914 228.99 949.914 228.534C949.914 227.774 950.193 226.836 950.75 225.722C951.358 224.607 952.27 223.518 953.486 222.454C954.702 221.39 956.247 220.503 958.122 219.794C960.047 219.034 962.378 218.654 965.114 218.654C968.154 218.654 970.713 219.059 972.79 219.87C974.867 220.63 976.489 221.668 977.654 222.986C978.87 224.303 979.731 225.798 980.238 227.47C980.795 229.142 981.074 230.839 981.074 232.562V257.186C981.074 257.692 980.897 258.123 980.542 258.478C980.238 258.782 979.833 258.934 979.326 258.934H975.83C975.273 258.934 974.842 258.782 974.538 258.478C974.234 258.123 974.082 257.692 974.082 257.186V253.918C973.423 254.83 972.537 255.742 971.422 256.654C970.307 257.515 968.914 258.25 967.242 258.858C965.57 259.415 963.518 259.694 961.086 259.694ZM962.682 253.994C964.759 253.994 966.659 253.563 968.382 252.702C970.105 251.79 971.447 250.396 972.41 248.522C973.423 246.647 973.93 244.291 973.93 241.454V239.326L965.114 240.618C961.517 241.124 958.806 241.986 956.982 243.202C955.158 244.367 954.246 245.862 954.246 247.686C954.246 249.104 954.651 250.295 955.462 251.258C956.323 252.17 957.387 252.854 958.654 253.31C959.971 253.766 961.314 253.994 962.682 253.994ZM987.668 258.934C987.161 258.934 986.73 258.782 986.376 258.478C986.072 258.123 985.92 257.692 985.92 257.186V221.238C985.92 220.731 986.072 220.3 986.376 219.946C986.73 219.591 987.161 219.414 987.668 219.414H991.164C991.67 219.414 992.101 219.591 992.456 219.946C992.81 220.3 992.988 220.731 992.988 221.238V224.582C994.001 222.859 995.394 221.567 997.168 220.706C998.941 219.844 1001.07 219.414 1003.55 219.414H1006.59C1007.1 219.414 1007.5 219.591 1007.81 219.946C1008.11 220.25 1008.26 220.655 1008.26 221.162V224.278C1008.26 224.784 1008.11 225.19 1007.81 225.494C1007.5 225.798 1007.1 225.95 1006.59 225.95H1002.03C999.296 225.95 997.142 226.76 995.572 228.382C994.001 229.952 993.216 232.106 993.216 234.842V257.186C993.216 257.692 993.038 258.123 992.684 258.478C992.329 258.782 991.898 258.934 991.392 258.934H987.668Z" fill="#5F5F5F"/>
<g clip-path="url(#clip0_135_23)">
<path d="M623.971 495.403C618.967 496.543 614.248 495.784 609.813 493.126C605.496 490.281 602.767 486.357 601.627 481.352L572.597 353.971C571.457 348.967 572.233 344.324 574.926 340.041C577.736 335.572 581.643 332.767 586.647 331.627L714.029 302.597C719.033 301.457 723.694 302.309 728.011 305.154C732.445 307.812 735.232 311.643 736.373 316.648L765.403 444.029C766.543 449.033 765.708 453.769 762.898 458.238C760.205 462.521 756.357 465.233 751.352 466.373L623.971 495.403ZM619.824 477.205L747.205 448.176L718.176 320.795L590.795 349.824L619.824 477.205ZM624.776 456.935L733.96 432.052L689.472 394.335L670.47 436.95L643.778 414.319L624.776 456.935ZM619.824 477.205L590.795 349.824L619.824 477.205Z" fill="#5F5F5F"/>
</g>
<defs>
<clipPath id="clip0_135_23">
<rect width="223.966" height="223.966" fill="white" transform="translate(534.934 314.699) rotate(-12.8382)"/>
</clipPath>
</defs>
</svg>
