<svg width="155" height="46" viewBox="0 0 155 46" fill="none" xmlns="http://www.w3.org/2000/svg">
<path d="M30.6958 11.168C30.3491 11.1333 30.1411 9.868 30.0718 7.372C30.2105 6.67866 30.4878 5.77733 30.9038 4.668C31.3198 3.524 31.9091 2.18933 32.6718 0.663997C32.8798 0.594665 33.0358 0.559999 33.1398 0.559999C33.7638 0.559999 34.0758 1.20133 34.0758 2.484C33.7291 3.03866 33.3825 3.61066 33.0358 4.2C32.6891 4.75467 32.3598 5.30933 32.0478 5.864C31.1118 7.66666 30.6611 9.43466 30.6958 11.168ZM16.0838 45.28C10.7798 45.28 6.6718 44.0147 3.7598 41.484C1.3678 39.3347 0.171797 36.596 0.171797 33.268C0.171797 29.524 1.71446 26.4733 4.7998 24.116C7.57313 21.9667 10.7451 20.8747 14.3158 20.84C17.2971 20.84 19.6371 21.6027 21.3358 23.128C22.8265 24.5147 23.5718 26.2133 23.5718 28.224C23.5718 30.2693 22.8438 32.02 21.3878 33.476C19.7238 35.0707 17.6091 35.868 15.0438 35.868C14.7318 35.868 14.5758 35.816 14.5758 35.712C14.5758 35.504 14.7318 35.3827 15.0438 35.348C16.1531 35.1053 17.1411 34.7587 18.0078 34.308C18.9091 33.8573 19.6718 33.268 20.2958 32.54C21.4745 31.2573 22.0638 29.7667 22.0638 28.068C22.0638 26.196 21.3878 24.6707 20.0358 23.492C18.6491 22.2093 16.8118 21.568 14.5238 21.568C11.4038 21.568 8.66513 22.5907 6.3078 24.636C3.74246 26.7853 2.4598 29.524 2.4598 32.852C2.4598 36.1107 3.4478 38.728 5.4238 40.704C7.7118 43.1307 11.1438 44.344 15.7198 44.344C20.1918 44.344 23.9358 43.0093 26.9518 40.34C30.2451 37.4973 31.8918 33.9093 31.8918 29.576C31.8918 26.4213 30.6785 23.4227 28.2518 20.58L22.5838 14.756C21.5438 13.6813 20.7811 12.624 20.2958 11.584C19.8451 10.5093 19.6198 9.48666 19.6198 8.516C19.6198 6.36667 20.4518 4.65067 22.1158 3.368C23.7105 2.08533 25.5651 1.444 27.6798 1.444C28.5118 1.444 29.3438 1.56533 30.1758 1.808C31.0078 2.05067 31.4238 2.34533 31.4238 2.692C31.4238 2.86533 31.3198 2.952 31.1118 2.952C31.0078 2.952 30.5918 2.796 29.8638 2.484C29.2745 2.24133 28.6678 2.12 28.0438 2.12C26.4838 2.12 25.0971 2.692 23.8838 3.836C22.7051 5.01467 22.1158 6.36666 22.1158 7.892C22.1158 9.62533 22.9305 11.3587 24.5598 13.092L29.8638 18.032C31.5625 19.592 32.8105 21.2907 33.6078 23.128C34.4398 24.9307 34.8558 26.8373 34.8558 28.848C34.8558 33.4933 32.8625 37.4453 28.8758 40.704C25.1318 43.7547 20.8678 45.28 16.0838 45.28ZM28.6158 28.224C28.4425 28.2933 28.3558 28.1893 28.3558 27.912C28.1131 26.2133 27.4198 24.48 26.2758 22.712C26.2065 23.232 26.1025 23.8213 25.9638 24.48C25.3051 24.584 24.7158 24.3587 24.1958 23.804C24.1265 23.7 24.0398 23.544 23.9358 23.336C23.8665 23.128 23.8318 22.8853 23.8318 22.608V22.244C23.8318 21.8627 23.8838 21.6027 23.9878 21.464C24.7158 21.984 25.3225 22.192 25.8078 22.088C25.0105 20.944 24.0918 19.904 23.0518 18.968C22.0118 17.9973 20.8851 17.1307 19.6718 16.368C17.1411 14.8427 14.9051 14.08 12.9638 14.08C10.8838 14.08 9.44513 14.9467 8.6478 16.68C9.02913 16.4027 9.41046 16.264 9.7918 16.264C10.2078 16.264 10.6065 16.3853 10.9878 16.628C11.6811 17.1133 12.0105 17.668 11.9758 18.292C11.5251 18.084 11.0398 17.98 10.5198 17.98C9.54913 17.98 8.83846 18.396 8.3878 19.228C8.00646 18.6387 7.8158 18.136 7.8158 17.72C7.8158 17.2 8.05846 16.5587 8.5438 15.796C9.54913 14.132 11.1091 13.3 13.2238 13.3C16.3785 13.3 19.6371 14.86 22.9998 17.98C24.7331 19.5053 26.1371 21.0827 27.2118 22.712C28.2865 24.3067 28.8238 25.9707 28.8238 27.704V27.86C28.8238 28.0333 28.7545 28.1547 28.6158 28.224ZM41.9928 38.936C40.7101 38.936 40.0688 38 40.0688 36.128C40.0688 35.6427 40.1208 35.1053 40.2248 34.516C40.3288 33.9267 40.4675 33.3027 40.6408 32.644C40.9875 31.4307 41.5075 30.0613 42.2008 28.536C43.2408 26.3867 44.1075 25.312 44.8008 25.312C45.4595 25.312 45.9968 25.676 46.4128 26.404C46.6901 26.3 46.9155 26.248 47.0888 26.248C48.0595 26.248 48.5448 26.976 48.5448 28.432C48.5448 29.056 48.4235 29.784 48.1808 30.616C47.9381 31.448 47.5221 32.488 46.9328 33.736C47.7995 34.5333 48.6488 34.932 49.4808 34.932C50.1395 34.932 50.7635 34.776 51.3528 34.464C51.9421 34.1173 52.6008 33.4587 53.3288 32.488C53.3981 32.4187 53.5021 32.384 53.6408 32.384C53.7448 32.384 53.7968 32.488 53.7968 32.696C53.7968 32.904 53.7101 33.1293 53.5368 33.372C53.0861 33.9613 52.5141 34.4987 51.8208 34.984C51.1621 35.4347 50.3301 35.66 49.3248 35.66C48.3195 35.66 47.4181 35.3133 46.6208 34.62C45.3035 37.4973 43.7608 38.936 41.9928 38.936ZM46.3088 33.06C46.5861 32.436 46.7941 31.7947 46.9328 31.136C47.0715 30.4773 47.1408 29.7667 47.1408 29.004C47.1408 27.8253 46.7941 27.236 46.1008 27.236C45.4421 27.236 45.1128 27.8773 45.1128 29.16C45.1128 29.7147 45.2341 30.3907 45.4768 31.188C45.7541 31.9853 46.0315 32.6093 46.3088 33.06ZM42.9288 37.48C43.4141 37.48 44.0208 37.012 44.7488 36.076C45.0608 35.6947 45.3208 35.3133 45.5288 34.932C45.7368 34.516 45.8755 34.2387 45.9448 34.1C45.4248 33.5107 44.9741 32.8867 44.5928 32.228C44.2115 31.5693 43.9861 30.8933 43.9168 30.2C43.5008 30.5467 43.0675 31.448 42.6168 32.904C42.1661 34.36 41.9408 35.4173 41.9408 36.076C41.9408 37.012 42.2701 37.48 42.9288 37.48ZM58.5869 38.624C55.0856 38.624 53.3349 36.0413 53.3349 30.876C53.3349 25.8147 54.9989 20.32 58.3269 14.392C61.5856 8.49867 64.6709 5.552 67.5829 5.552C68.6229 5.552 69.3162 6.26267 69.6629 7.684V8.36C69.6629 10.856 67.7389 15.068 63.8909 20.996C62.2616 23.5613 60.7189 25.7973 59.2629 27.704C57.8416 29.6107 56.5069 31.2227 55.2589 32.54C55.6749 35.66 57.1136 37.22 59.5749 37.22C61.0656 37.22 62.3309 36.804 63.3709 35.972C64.4109 35.1053 65.5202 33.944 66.6989 32.488C66.9069 32.28 67.0456 32.176 67.1149 32.176C67.2189 32.176 67.2709 32.2627 67.2709 32.436C67.2709 32.6787 67.1496 32.9907 66.9069 33.372C65.4162 35.2787 64.0122 36.6307 62.6949 37.428C61.3776 38.2253 60.0082 38.624 58.5869 38.624ZM55.3109 31.24C57.1829 29.4027 59.6269 25.7627 62.6429 20.32C65.8322 14.5307 67.4269 10.544 67.4269 8.36C67.4269 7.38933 67.1496 6.904 66.5949 6.904C64.4456 6.904 62.0016 9.98933 59.2629 16.16C57.9802 19.2107 56.9922 21.984 56.2989 24.48C55.6402 26.976 55.3109 29.2293 55.3109 31.24ZM97.4224 11.168C97.0757 11.1333 96.8677 9.868 96.7984 7.372C96.937 6.67866 97.2144 5.77733 97.6304 4.668C98.0464 3.524 98.6357 2.18933 99.3984 0.663997C99.6064 0.594665 99.7624 0.559999 99.8664 0.559999C100.49 0.559999 100.802 1.20133 100.802 2.484C100.456 3.03866 100.109 3.61066 99.7624 4.2C99.4157 4.75467 99.0864 5.30933 98.7744 5.864C97.8384 7.66666 97.3877 9.43466 97.4224 11.168ZM82.8104 45.28C77.5064 45.28 73.3984 44.0147 70.4864 41.484C68.0944 39.3347 66.8984 36.596 66.8984 33.268C66.8984 29.524 68.441 26.4733 71.5264 24.116C74.2997 21.9667 77.4717 20.8747 81.0424 20.84C84.0237 20.84 86.3637 21.6027 88.0624 23.128C89.553 24.5147 90.2984 26.2133 90.2984 28.224C90.2984 30.2693 89.5704 32.02 88.1144 33.476C86.4504 35.0707 84.3357 35.868 81.7704 35.868C81.4584 35.868 81.3024 35.816 81.3024 35.712C81.3024 35.504 81.4584 35.3827 81.7704 35.348C82.8797 35.1053 83.8677 34.7587 84.7344 34.308C85.6357 33.8573 86.3984 33.268 87.0224 32.54C88.201 31.2573 88.7904 29.7667 88.7904 28.068C88.7904 26.196 88.1144 24.6707 86.7624 23.492C85.3757 22.2093 83.5384 21.568 81.2504 21.568C78.1304 21.568 75.3917 22.5907 73.0344 24.636C70.469 26.7853 69.1864 29.524 69.1864 32.852C69.1864 36.1107 70.1744 38.728 72.1504 40.704C74.4384 43.1307 77.8704 44.344 82.4464 44.344C86.9184 44.344 90.6624 43.0093 93.6784 40.34C96.9717 37.4973 98.6184 33.9093 98.6184 29.576C98.6184 26.4213 97.405 23.4227 94.9784 20.58L89.3104 14.756C88.2704 13.6813 87.5077 12.624 87.0224 11.584C86.5717 10.5093 86.3464 9.48666 86.3464 8.516C86.3464 6.36667 87.1784 4.65067 88.8424 3.368C90.437 2.08533 92.2917 1.444 94.4064 1.444C95.2384 1.444 96.0704 1.56533 96.9024 1.808C97.7344 2.05067 98.1504 2.34533 98.1504 2.692C98.1504 2.86533 98.0464 2.952 97.8384 2.952C97.7344 2.952 97.3184 2.796 96.5904 2.484C96.001 2.24133 95.3944 2.12 94.7704 2.12C93.2104 2.12 91.8237 2.692 90.6104 3.836C89.4317 5.01467 88.8424 6.36666 88.8424 7.892C88.8424 9.62533 89.657 11.3587 91.2864 13.092L96.5904 18.032C98.289 19.592 99.537 21.2907 100.334 23.128C101.166 24.9307 101.582 26.8373 101.582 28.848C101.582 33.4933 99.589 37.4453 95.6024 40.704C91.8584 43.7547 87.5944 45.28 82.8104 45.28ZM95.3424 28.224C95.169 28.2933 95.0824 28.1893 95.0824 27.912C94.8397 26.2133 94.1464 24.48 93.0024 22.712C92.933 23.232 92.829 23.8213 92.6904 24.48C92.0317 24.584 91.4424 24.3587 90.9224 23.804C90.853 23.7 90.7664 23.544 90.6624 23.336C90.593 23.128 90.5584 22.8853 90.5584 22.608V22.244C90.5584 21.8627 90.6104 21.6027 90.7144 21.464C91.4424 21.984 92.049 22.192 92.5344 22.088C91.737 20.944 90.8184 19.904 89.7784 18.968C88.7384 17.9973 87.6117 17.1307 86.3984 16.368C83.8677 14.8427 81.6317 14.08 79.6904 14.08C77.6104 14.08 76.1717 14.9467 75.3744 16.68C75.7557 16.4027 76.137 16.264 76.5184 16.264C76.9344 16.264 77.333 16.3853 77.7144 16.628C78.4077 17.1133 78.737 17.668 78.7024 18.292C78.2517 18.084 77.7664 17.98 77.2464 17.98C76.2757 17.98 75.565 18.396 75.1144 19.228C74.733 18.6387 74.5424 18.136 74.5424 17.72C74.5424 17.2 74.785 16.5587 75.2704 15.796C76.2757 14.132 77.8357 13.3 79.9504 13.3C83.105 13.3 86.3637 14.86 89.7264 17.98C91.4597 19.5053 92.8637 21.0827 93.9384 22.712C95.013 24.3067 95.5504 25.9707 95.5504 27.704V27.86C95.5504 28.0333 95.481 28.1547 95.3424 28.224ZM113.763 38.624C111.753 38.624 110.175 38.0347 109.031 36.856C107.922 35.6773 107.367 34.0307 107.367 31.916C107.367 30.1827 107.679 28.484 108.303 26.82C107.263 26.82 106.449 26.716 105.859 26.508C104.889 26.3 104.403 25.936 104.403 25.416C104.403 25.208 104.559 25.104 104.871 25.104C105.114 25.104 105.391 25.1213 105.703 25.156C106.05 25.156 106.449 25.1733 106.899 25.208C107.385 25.2427 107.801 25.2773 108.147 25.312C108.494 25.312 108.771 25.312 108.979 25.312L110.799 21.048C111.215 20.0427 111.597 19.228 111.943 18.604C112.29 17.98 112.567 17.5467 112.775 17.304C113.295 16.7493 113.989 16.472 114.855 16.472C115.687 16.472 116.103 16.6453 116.103 16.992L114.283 19.852C113.625 20.892 113.035 21.88 112.515 22.816C112.03 23.752 111.597 24.636 111.215 25.468C113.365 25.468 115.081 25.468 116.363 25.468C117.646 25.4333 118.513 25.416 118.963 25.416H119.379C119.795 25.416 120.003 25.468 120.003 25.572C120.003 25.78 119.587 25.9707 118.755 26.144C117.265 26.3173 115.861 26.456 114.543 26.56C113.226 26.664 111.978 26.716 110.799 26.716C110.453 27.6173 110.158 28.5707 109.915 29.576C109.707 30.5467 109.603 31.4827 109.603 32.384C109.603 33.736 109.915 34.9147 110.539 35.92C111.163 36.9253 112.273 37.428 113.867 37.428C115.774 37.428 117.282 36.9773 118.391 36.076C119.535 35.14 120.697 33.944 121.875 32.488C122.049 32.28 122.205 32.176 122.343 32.176C122.447 32.176 122.499 32.2627 122.499 32.436C122.499 32.6787 122.361 32.9907 122.083 33.372C120.593 35.2787 119.189 36.6307 117.871 37.428C116.589 38.2253 115.219 38.624 113.763 38.624ZM130.21 38.26C128.962 38.26 128.338 37.48 128.338 35.92C128.338 35.088 128.65 34.048 129.274 32.8C129.863 31.4133 130.158 30.408 130.158 29.784C130.158 29.3333 129.984 28.9867 129.638 28.744C129.326 28.5013 128.927 28.276 128.442 28.068C128.095 27.8947 127.731 27.6867 127.35 27.444C126.968 27.2013 126.656 26.9587 126.414 26.716C126.171 27.236 125.634 28.1373 124.802 29.42C123.97 30.7027 123.068 32.02 122.098 33.372C121.959 33.5453 121.82 33.632 121.682 33.632C121.543 33.632 121.474 33.5107 121.474 33.268C121.474 33.0253 121.612 32.7653 121.89 32.488C122.167 32.1413 122.566 31.5867 123.086 30.824C123.606 30.0267 124.126 29.1773 124.646 28.276C125.166 27.34 125.564 26.5253 125.842 25.832C125.668 25.2427 125.53 24.74 125.426 24.324C125.322 23.908 125.27 23.492 125.27 23.076C125.27 22.348 125.478 21.6893 125.894 21.1C126.31 20.5107 126.847 20.216 127.506 20.216C128.442 20.216 128.91 20.7707 128.91 21.88C128.91 23.0933 128.442 24.3587 127.506 25.676C127.644 25.884 127.818 26.0573 128.026 26.196C128.234 26.3347 128.563 26.4907 129.014 26.664C129.256 26.768 129.482 26.8373 129.69 26.872C129.932 26.9067 130.14 26.924 130.314 26.924C130.591 26.924 130.816 26.9067 130.99 26.872C131.198 26.8373 131.371 26.82 131.51 26.82C131.718 26.82 131.96 26.9413 132.238 27.184C132.55 27.392 132.706 27.7213 132.706 28.172C132.706 28.4147 132.688 28.5707 132.654 28.64C132.619 28.7093 132.515 29.004 132.342 29.524C132.203 30.0093 131.943 30.7027 131.562 31.604C130.868 33.4067 130.522 34.672 130.522 35.4C130.522 36.3707 130.851 36.856 131.51 36.856C132.238 36.856 133.104 36.4227 134.11 35.556C135.15 34.6893 136.103 33.6667 136.97 32.488C137.074 32.384 137.16 32.332 137.23 32.332C137.368 32.332 137.438 32.4533 137.438 32.696C137.438 32.9387 137.351 33.164 137.178 33.372C135.791 35.2093 134.543 36.492 133.434 37.22C132.324 37.9133 131.25 38.26 130.21 38.26ZM147.477 38.208C146.506 38.208 145.83 37.844 145.449 37.116C145.067 36.388 144.877 35.348 144.877 33.996C144.877 33.8227 144.877 33.6493 144.877 33.476C144.877 33.268 144.894 33.0773 144.929 32.904C144.409 33.9093 143.559 34.8973 142.381 35.868C141.098 37.012 139.971 37.584 139.001 37.584C138.377 37.584 137.822 37.22 137.337 36.492C136.955 35.7987 136.765 35.1053 136.765 34.412C136.765 33.2333 137.059 31.8987 137.649 30.408C138.273 28.536 139.07 27.6 140.041 27.6C140.387 27.6 140.578 27.8253 140.613 28.276C139.261 30.5987 138.585 32.4533 138.585 33.84C138.585 35.192 139.001 35.868 139.833 35.868C141.601 35.868 143.525 33.9613 145.605 30.148C145.674 29.94 145.778 29.6973 145.917 29.42C146.09 29.108 146.281 28.7787 146.489 28.432C146.593 28.12 147.061 27.964 147.893 27.964C148.17 27.964 148.309 28.068 148.309 28.276L147.737 29.888C147.459 30.6507 147.269 31.3787 147.165 32.072C147.061 32.7653 147.009 33.4067 147.009 33.996C147.009 35.9027 147.459 36.856 148.361 36.856C149.054 36.856 149.903 36.4227 150.909 35.556C151.949 34.6893 152.902 33.6667 153.769 32.488C153.873 32.384 153.959 32.332 154.029 32.332C154.167 32.332 154.237 32.4533 154.237 32.696C154.237 32.9387 154.15 33.164 153.977 33.372C152.59 35.2093 151.359 36.4747 150.285 37.168C149.245 37.8613 148.309 38.208 147.477 38.208Z" fill="url(#paint0_linear_4_2)"/>
<defs>
<linearGradient id="paint0_linear_4_2" x1="41.3125" y1="28.1591" x2="117.624" y2="-52.6451" gradientUnits="userSpaceOnUse">
<stop/>
<stop offset="1" stop-color="#F1F1F1"/>
</linearGradient>
</defs>
</svg>
